{"title":"Vendetta.2015.BRRip.480p.x264.AAC-VYTO [P2PDL]","uid":12205509,"size":320891491,"categoryP":"video","categoryS":"movies","magnet":"?xt=urn:btih:8f301eef19a83d410cd4dca59ee5446e8da41846&amp;dn=Vendetta.2015.BRRip.480p.x264.AAC-VYTO+%5BP2PDL%5D&amp;tr=udp%3A%2F%2Ftracker.openbittorrent.com%3A80&amp;tr=udp%3A%2F%2Fopen.demonii.com%3A1337&amp;tr=udp%3A%2F%2Ftracker.coppersurfer.tk%3A6969&amp;tr=udp%3A%2F%2Fexodus.desync.com%3A6969","seeders":1,"leechers":0,"uploader":"ValidusVyto","files":7,"time":1438941183,"description":"____    ____ ____    ____ .___________.  ______   \n     /   /      /   / |           | /  __    \n    /   /      /   /  `---|  |----`|  |  |  | \n        /     _    _/       |  |     |  |  |  | \n       /        |  |         |  |     |  `--'  | \n    __/         |__|         |__|      ______/  \n                                                  \nPresenting Small Encodes with quality for years!\n                                                                                                   \n                                                                                                   \n\nVendetta.2015.BRRip.480p.x264.AAC-VYTO\n\n\nGenre: Action, Drama  &lt;a href=&quot;\nhttp://www.imdb.com/title/tt3746298/&quot; rel=&quot;nofollow&quot; target=&quot;_NEW&quot;&gt;\nhttp://www.imdb.com/title/tt3746298/&lt;/a&gt;\n\n\nGeneral\nFormat                         : MPEG-4\nFile size                      : 302 MiB\nDuration                       : 1h 30mn\nOverall bit rate               : 468 Kbps\n\nVideo\nFormat                         : AVC\nBit rate                       : 433 Kbps\nWidth                          : 720 pixels\nHeight                         : 400 pixels\nDisplay aspect ratio           : 16:9\nFrame rate mode                : Constant\nFrame rate                     : 23.976 fps\nBit depth                      : 8 bits\nStream size                    : 279 MiB (93%)\nWriting library                : x264 core 146 r2538 121396c\n\nAudio\nFormat                         : AAC\nBit rate mode                  : Variable\nBit rate                       : 32.0 Kbps\nChannel(s)                     : 2 channels\nChannel positions              : Front: L R\nSampling rate                  : 48.0 KHz\nStream size                    : 20.6 MiB (7%)\nLanguage                       : English\n\nSubtitle                       : Yes (English)\nSource                     \t   : 720p.BluRay.x264-ROVERS\t\t\n\n\nScreenshots:\n &lt;a href=&quot;\nhttp://ititli.com/8k&quot; rel=&quot;nofollow&quot; target=&quot;_NEW&quot;&gt;\nhttp://ititli.com/8k&lt;/a&gt; &lt;a href=&quot;\nhttp://ititli.com/8o&quot; rel=&quot;nofollow&quot; target=&quot;_NEW&quot;&gt;\nhttp://ititli.com/8o&lt;/a&gt; &lt;a href=&quot;\nhttp://ititli.com/8G&quot; rel=&quot;nofollow&quot; target=&quot;_NEW&quot;&gt;\nhttp://ititli.com/8G&lt;/a&gt; &lt;a href=&quot;\nhttp://ititli.com/8H&quot; rel=&quot;nofollow&quot; target=&quot;_NEW&quot;&gt;\nhttp://ititli.com/8H&lt;/a&gt; &lt;a href=&quot;\nhttp://ititli.com/8M&quot; rel=&quot;nofollow&quot; target=&quot;_NEW&quot;&gt;\nhttp://ititli.com/8M&lt;/a&gt; &lt;a href=&quot;\nhttp://ititli.com/8U&quot; rel=&quot;nofollow&quot; target=&quot;_NEW&quot;&gt;\nhttp://ititli.com/8U&lt;/a&gt; &lt;a href=&quot;\nhttp://ititli.com/8h&quot; rel=&quot;nofollow&quot; target=&quot;_NEW&quot;&gt;\nhttp://ititli.com/8h&lt;/a&gt; &lt;a href=&quot;\nhttp://ititli.com/8s&quot; rel=&quot;nofollow&quot; target=&quot;_NEW&quot;&gt;\nhttp://ititli.com/8s&lt;/a&gt; &lt;a href=&quot;\nhttp://ititli.com/8Y&quot; rel=&quot;nofollow&quot; target=&quot;_NEW&quot;&gt;\nhttp://ititli.com/8Y&lt;/a&gt; &lt;a href=&quot;\nhttp://ititli.com/84&quot; rel=&quot;nofollow&quot; target=&quot;_NEW&quot;&gt;\nhttp://ititli.com/84&lt;/a&gt; &lt;a href=&quot;\nhttp://ititli.com/8K&quot; rel=&quot;nofollow&quot; target=&quot;_NEW&quot;&gt;\nhttp://ititli.com/8K&lt;/a&gt; &lt;a href=&quot;\nhttp://ititli.com/8V&quot; rel=&quot;nofollow&quot; target=&quot;_NEW&quot;&gt;\nhttp://ititli.com/8V&lt;/a&gt;\n\n----------------------------------------------------------------------------------------------------\n\n\nEncoder Notes: Looking For Early Access To Anything You Can Provide DVDScr, R5, DVDR, BluRay, Direct\nAudio, Music Releases and Seedboxes. If You Got anything to offer please contact us.\n\nSupport us by donating BC - 1FgwdzPsd1y25Gea8wP1qni35uGCtmkRCD","torrent":{"xt":"urn:btih:8f301eef19a83d410cd4dca59ee5446e8da41846","amp;dn":"Vendetta.2015.BRRip.480p.x264.AAC-VYTO+%5BP2PDL%5D","amp;tr":["udp%3A%2F%2Ftracker.openbittorrent.com%3A80","udp%3A%2F%2Fopen.demonii.com%3A1337","udp%3A%2F%2Ftracker.coppersurfer.tk%3A6969","udp%3A%2F%2Fexodus.desync.com%3A6969"],"infoHash":"8f301eef19a83d410cd4dca59ee5446e8da41846","infoHashBuffer":{"type":"Buffer","data":[143,48,30,239,25,168,61,65,12,212,220,165,158,229,68,110,141,164,24,70]},"announce":[],"urlList":[]}}